<?xml version="1.0" encoding="UTF-8"?> <svg xmlns="http://www.w3.org/2000/svg" id="Layer_1" data-name="Layer 1" viewBox="0 0 251.65 154.95"><defs><style>.cls-1{fill:#000f9f;}</style></defs><path class="cls-1" d="M47.31,29.62s-5.69,5,.78,13S61,55,61.43,55.71s13,27.45,12.94,34.9c-.06,5.08,2.74-13.11,4.18-26.47a25,25,0,0,0-2.71-14.41c-4.51-7.85-13.53-12.65-13.53-12.65a9.31,9.31,0,0,1-2.65.4,8.45,8.45,0,0,1-2.64-.6,31.13,31.13,0,0,1-5.52-3.17,25.34,25.34,0,0,1-4.19-4.09"></path><path class="cls-1" d="M51,27.57,60,34.82s.1,2.75-3.83.49-6.57-4.7-6.76-5.39S47.8,27.27,51,27.57"></path><path class="cls-1" d="M67.12,14.52l8.43,7.36a4.55,4.55,0,0,1-2.06.37,8.82,8.82,0,0,1-2.26-.57l-5.39-4.41s-1.47-2.45,1.28-2.75"></path><path class="cls-1" d="M76.91,23.06a12.07,12.07,0,0,1-11.46-4.51,1.4,1.4,0,0,0-2.35-.1,10.92,10.92,0,0,0-.76,3.43c-.12,3.15-.22,7.54.66,8,.54.31,2.54,6.26,7,9.7A63.63,63.63,0,0,1,82.71,53.25a20.43,20.43,0,0,0-1.77,4.91c-.21,1.22-1.93,12.36-3,23.14-.94,9.16-1.21,18.27-2.34,18.53-1.54.35-14.22-9.31-14.61-16.77-.52-9.77-1.77-16.17-6.67-20.2-1.89-1.55.8,3.65.1,4.9-1.73,3.08.46,8.9-1.57,18C49.34,101.43,44.36,108,44.36,108s9.37,39.76,15.89,39.81,28.93,0,28.93,0A155.31,155.31,0,0,1,92,127.89c2.54-12.26,7-27.29,9-36.2,3.73-16.76-.1-43.63-.1-43.63Z"></path><path class="cls-1" d="M7.59,4.92a137.43,137.43,0,0,1,17,29.16c5.5,13.12,9.56,29.28,6.84,40.65-3.24,13.53-5.39,14-4.9,24.12.45,9.41,7.25,51.48,8.33,51.18.55-.15,1.26-15.87,3-25.8,1.69-9.74,4-12.5,5.06-14.1C45.05,106.89,38,75.86,40.25,68c.59-2.06,1.17-1,1.17-1s.2,5.3,3.63,6.08c1.54.35,6.39.06,7.65-2.45,2-3.92-.69-8.92-.69-8.92s1,6,.35,7.24S48.18,71.52,46,71.49c-4.38-.06-4.21-8.63-2.35-11.76,2.51-4.24,6.47-.3,7.35.1.48.21-2.84-18.76-15-33.08C26,14.89,7.59,4.92,7.59,4.92"></path><path class="cls-1" d="M115.13,72.93V71.55H118v-44h-2.9V26.2h14v1.38h-3.73v44h.56a6,6,0,0,0,5.75-3.28q1.76-3.28,2.07-11.53h1.38V72.93Z"></path><path class="cls-1" d="M171.24,56.15v.47q0,8.7-2,12.89c-1.33,2.8-3.38,4.19-6.13,4.19a7,7,0,0,1-3.34-1,11.34,11.34,0,0,1-3.15-2.57,23.7,23.7,0,0,1-4.57-8.37,35.54,35.54,0,0,1-1.56-10.87,43.86,43.86,0,0,1,1-9.39,38.52,38.52,0,0,1,3-8.56,16.8,16.8,0,0,1,4-5.55,7.21,7.21,0,0,1,4.76-1.9,5.67,5.67,0,0,1,2.84.71,6.9,6.9,0,0,1,2.27,2.19l1.38-2.84h1.45V41.41h-1.51a32.12,32.12,0,0,0-2-10.67c-1.12-2.6-2.52-3.89-4.2-3.89-1.85,0-3.13,1.48-3.85,4.46s-1.07,9.45-1.07,19.42q0,12.93,1.12,17t4,4.09q2.85,0,4.37-3.78t1.51-11v-.9Z"></path><path class="cls-1" d="M187.73,73.3V56.15H189q.28,7.34,2.59,11.78c1.54,3,3.43,4.45,5.69,4.45a3.6,3.6,0,0,0,2.87-1.31,5.08,5.08,0,0,0,1.1-3.37A14.48,14.48,0,0,0,199.8,62a61.64,61.64,0,0,0-4.87-8.4,49.65,49.65,0,0,1-5.46-10,22.74,22.74,0,0,1-1.28-7.56,13.75,13.75,0,0,1,1.94-7.72,5.8,5.8,0,0,1,5-2.93,5.69,5.69,0,0,1,2.94.85,8.65,8.65,0,0,1,2.54,2.35L202,25.52h1.27V41H202a29.74,29.74,0,0,0-2.37-10.47c-1.23-2.52-2.73-3.79-4.49-3.79A3.32,3.32,0,0,0,192.39,28a5.2,5.2,0,0,0-1,3.35q0,3,4.53,9.45c1.13,1.64,2,2.93,2.62,3.85a54.74,54.74,0,0,1,5.29,9.64,20.51,20.51,0,0,1,1.45,7.38,15.7,15.7,0,0,1-2.14,8.69,6.48,6.48,0,0,1-5.62,3.26,7.31,7.31,0,0,1-3.56-.88A11.77,11.77,0,0,1,190.72,70L189,73.3Z"></path><path class="cls-1" d="M232.08,26.2q5.7,0,8.83,3.34t3.14,9.4q0,6.08-3.49,9.56T231,52h-.12V71.55h3.48v1.38h-13.7V71.55h2.89v-44h-2.89V26.2Zm-1.2,24.47h.55q3.3,0,4.5-2.17c.8-1.44,1.2-5,1.2-10.57q0-6.55-1.2-8.45c-.8-1.26-2.32-1.9-4.56-1.9h-.49Z"></path><path class="cls-1" d="M114.36,98v-.55h1.34V80h-1.34v-.55h5a6.68,6.68,0,0,1,4.3,1.28,4.3,4.3,0,0,1,.41,6.35,6.27,6.27,0,0,1-3.37,1.64,4.06,4.06,0,0,1,4.17,4.83v2.43a4.39,4.39,0,0,0,.11,1.25q.12.33.39.33c.22,0,.37-.16.47-.48a6.06,6.06,0,0,0,.14-1.6v-.38h.68v.48a3,3,0,0,1-.6,2.08,2.54,2.54,0,0,1-1.92.63,2.43,2.43,0,0,1-1.38-.35,2.51,2.51,0,0,1-.86-1.15,17.92,17.92,0,0,1-.27-3.55c0-.74,0-1.32,0-1.74a3.24,3.24,0,0,0-.5-2,2.28,2.28,0,0,0-1.65-.46h-.31v8.41h1.34V98Zm4.75-9.51h.14a2.35,2.35,0,0,0,2-.73q.54-.72.54-3.51c0-1.9-.18-3.09-.54-3.56a2.48,2.48,0,0,0-2.07-.7h-.08Z"></path><path class="cls-1" d="M138.24,90.91c0,.31,0,.61,0,.92s0,.69,0,1.18a13.73,13.73,0,0,0,.34,3.77,1.25,1.25,0,0,0,1.22,1,1.87,1.87,0,0,0,1.65-1.14,6.94,6.94,0,0,0,.67-3.11l.7,0a6.64,6.64,0,0,1-.95,3.62,2.91,2.91,0,0,1-2.51,1.2,3.64,3.64,0,0,1-3.13-1.92A9,9,0,0,1,135,91.43a9.06,9.06,0,0,1,1.2-4.85,3.44,3.44,0,0,1,2.91-1.94,3.09,3.09,0,0,1,2.71,1.71,8.68,8.68,0,0,1,1,4.55Zm0-.53H140V89.1q0-3.93-.9-3.93c-.33,0-.55.22-.68.66a13.55,13.55,0,0,0-.18,2.82Z"></path><path class="cls-1" d="M155.09,93.67a3.63,3.63,0,0,1-2.17-1.53,5,5,0,0,1-.82-2.86,4.75,4.75,0,0,1,1.1-3.2,4.12,4.12,0,0,1,2.87-1.44,8,8,0,0,1-.25-1,3,3,0,0,1-.08-.7,2.2,2.2,0,0,1,.56-1.54,1.81,1.81,0,0,1,1.38-.61,1.68,1.68,0,0,1,1.72,1.72,1.39,1.39,0,0,1-.34,1,1.12,1.12,0,0,1-.86.37,1.21,1.21,0,0,1-.91-.35,1.27,1.27,0,0,1-.35-.92,1.51,1.51,0,0,1,.09-.5,3.33,3.33,0,0,1,.3-.6,1,1,0,0,0-.72.53,2.1,2.1,0,0,0-.29,1.12,2.59,2.59,0,0,0,.11.69,4.35,4.35,0,0,0,.34.82,4.16,4.16,0,0,1,2.48,1.61,5,5,0,0,1,.11,5.71,4.2,4.2,0,0,1-2.26,1.62l-1,.25c-1.11.3-1.66.61-1.66.95s.5.71,1.51,1.23c.49.25.88.46,1.16.62a9.39,9.39,0,0,1,2.5,1.85,2.84,2.84,0,0,1,.67,1.84,3.12,3.12,0,0,1-1.17,2.46,4.53,4.53,0,0,1-5.64.05,3,3,0,0,1-1.14-2.34,2.65,2.65,0,0,1,.43-1.45,5.08,5.08,0,0,1,1.42-1.3A5.72,5.72,0,0,1,153,96.71a1.56,1.56,0,0,1-.4-1,1.45,1.45,0,0,1,.59-1.11A6.8,6.8,0,0,1,155.09,93.67ZM154.72,98v3.09a2.93,2.93,0,0,0,.37,1.71,1.48,1.48,0,0,0,1.26.49,2.12,2.12,0,0,0,1.46-.52,1.72,1.72,0,0,0,.57-1.33,2.13,2.13,0,0,0-.74-1.56A13.87,13.87,0,0,0,154.72,98Zm1.43-12.87a.87.87,0,0,0-.88.61,13.59,13.59,0,0,0-.23,3.4,14.14,14.14,0,0,0,.23,3.48.93.93,0,0,0,1.76,0,13.68,13.68,0,0,0,.24-3.44,13.73,13.73,0,0,0-.24-3.44A.87.87,0,0,0,156.15,85.17Z"></path><path class="cls-1" d="M169.34,98v-.5h1V85.37h-1v-.5h4v12.6h1.07V98Zm4.28-16.58a1.92,1.92,0,0,1-.5,1.4,1.9,1.9,0,0,1-2.63,0,1.92,1.92,0,0,1-.5-1.4,2,2,0,0,1,.5-1.42,1.87,1.87,0,0,1,2.63,0A2,2,0,0,1,173.62,81.39Z"></path><path class="cls-1" d="M184.75,97.4l-.56.93h-.55V93.26h.64a7.9,7.9,0,0,0,.85,3.35,2,2,0,0,0,1.77,1.21,1.45,1.45,0,0,0,1.49-1.5,2.87,2.87,0,0,0-.35-1.26,13.11,13.11,0,0,0-1.23-1.85l-.68-.86q-2.28-2.85-2.28-4.52a3.31,3.31,0,0,1,.83-2.29,2.57,2.57,0,0,1,2-.92,2.62,2.62,0,0,1,1,.2,3.15,3.15,0,0,1,.92.63l.32-.81h.61v4.71h-.67a7.36,7.36,0,0,0-.69-3.06c-.4-.77-.89-1.15-1.49-1.15a1.06,1.06,0,0,0-1.13,1.11c0,.55.53,1.44,1.59,2.66l.16.19.31.36q2.87,3.3,2.87,5.18a3.58,3.58,0,0,1-1,2.62,3.37,3.37,0,0,1-2.5,1.07,2.85,2.85,0,0,1-1.13-.23A3.85,3.85,0,0,1,184.75,97.4Z"></path><path class="cls-1" d="M200.28,85.37H199v-.5a3.59,3.59,0,0,0,2.51-1.19,5.34,5.34,0,0,0,1.17-3h.62v4.18h2v.5h-2V95.7a4.67,4.67,0,0,0,.14,1.44.51.51,0,0,0,.5.33q.56,0,.78-.75a11.41,11.41,0,0,0,.22-2.78h.68c0,.1,0,.21,0,.33v.54a4.84,4.84,0,0,1-.55,2.66,2.11,2.11,0,0,1-1.85.8A2.33,2.33,0,0,1,201,96.93a11.87,11.87,0,0,1-.67-4.79Z"></path><path class="cls-1" d="M217.66,90.91c0,.31,0,.61,0,.92s0,.69,0,1.18a13.22,13.22,0,0,0,.35,3.77,1.23,1.23,0,0,0,1.21,1,1.87,1.87,0,0,0,1.65-1.14,6.8,6.8,0,0,0,.67-3.11l.7,0a6.64,6.64,0,0,1-1,3.62,2.91,2.91,0,0,1-2.51,1.2,3.65,3.65,0,0,1-3.13-1.92,10.41,10.41,0,0,1,0-9.8,3.44,3.44,0,0,1,2.9-1.94,3.08,3.08,0,0,1,2.71,1.71,8.68,8.68,0,0,1,1,4.55Zm0-.53h1.76V89.1q0-3.93-.9-3.93c-.32,0-.55.22-.67.66a12.63,12.63,0,0,0-.19,2.82Z"></path><path class="cls-1" d="M231.38,98v-.5h1V85.37h-1v-.5h3.44v3.66h.08a6.69,6.69,0,0,1,.83-2.81,1.82,1.82,0,0,1,1.58-1,1.71,1.71,0,0,1,1.38.58,2.43,2.43,0,0,1,.49,1.62,1.79,1.79,0,0,1-.37,1.21,1.22,1.22,0,0,1-1,.44,1.12,1.12,0,0,1-.93-.43,1.85,1.85,0,0,1-.33-1.17,2.67,2.67,0,0,1,.11-.8,3.15,3.15,0,0,1,.34-.75h0c-.48,0-.88.43-1.19,1.31a10.13,10.13,0,0,0-.47,3.42v7.29h1.34V98Z"></path><path class="cls-1" d="M114.55,129v-.7h1.72V106h-1.72v-.7H126v7.48h-.75q-.22-4-1.11-5.38a3.16,3.16,0,0,0-2.9-1.43l-.3,0h-.27v10.56h.14a1.59,1.59,0,0,0,1.54-1,8.68,8.68,0,0,0,.46-3.39h.75v9.49h-.75a10.59,10.59,0,0,0-.48-3.58,1.41,1.41,0,0,0-1.41-.85h-.25v11.1H121a3.73,3.73,0,0,0,3.42-1.67q1.05-1.66,1.23-5.86h.82V129Z"></path><path class="cls-1" d="M132.89,128.3l-.71,1.19h-.72V123h.83a10.24,10.24,0,0,0,1.09,4.29,2.6,2.6,0,0,0,2.26,1.55,1.84,1.84,0,0,0,1.36-.54,1.89,1.89,0,0,0,.54-1.39,3.53,3.53,0,0,0-.44-1.61,15.91,15.91,0,0,0-1.57-2.37l-.88-1.11q-2.91-3.64-2.91-5.77a4.23,4.23,0,0,1,1.06-2.94,3.32,3.32,0,0,1,2.57-1.18,3.15,3.15,0,0,1,1.27.27,4.07,4.07,0,0,1,1.18.79l.4-1H139v6h-.86a9.35,9.35,0,0,0-.88-3.92c-.51-1-1.15-1.47-1.9-1.47a1.43,1.43,0,0,0-1.06.39,1.41,1.41,0,0,0-.39,1c0,.7.68,1.83,2,3.39l.2.25.41.46q3.66,4.23,3.66,6.64a4.62,4.62,0,0,1-1.34,3.35,4.36,4.36,0,0,1-3.2,1.36,3.68,3.68,0,0,1-1.45-.29A4.64,4.64,0,0,1,132.89,128.3Z"></path><path class="cls-1" d="M145.52,112.91h-1.68l0-.64a4.59,4.59,0,0,0,3.2-1.53,6.8,6.8,0,0,0,1.5-3.83h.79v5.36h2.51v.64h-2.51v13.21a5.85,5.85,0,0,0,.18,1.85.66.66,0,0,0,.65.42q.7,0,1-1a14.59,14.59,0,0,0,.29-3.56h.86c0,.13,0,.27,0,.43V125a6.1,6.1,0,0,1-.71,3.4,2.68,2.68,0,0,1-2.36,1,3,3,0,0,1-2.9-1.73q-.85-1.74-.86-6.13Z"></path><path class="cls-1" d="M161.32,127.11a2.37,2.37,0,0,1-.6,1.7,2.31,2.31,0,0,1-3.21,0,2.37,2.37,0,0,1-.6-1.7,2.34,2.34,0,0,1,.61-1.69,2.31,2.31,0,0,1,3.19,0A2.34,2.34,0,0,1,161.32,127.11Z"></path><path class="cls-1" d="M177.08,129v-.64h3.5V107.81a17.14,17.14,0,0,1-1.68.6,14.12,14.12,0,0,1-1.6.37v-.61a17.64,17.64,0,0,0,3.74-1.33,10.11,10.11,0,0,0,2.69-1.91h.82v23.46h3.15V129Z"></path><path class="cls-1" d="M201,119.67a3.51,3.51,0,0,1-1,.46,3.72,3.72,0,0,1-1.06.15,4.66,4.66,0,0,1-3.82-2.13,8.66,8.66,0,0,1-1.58-5.3,10.37,10.37,0,0,1,.61-3.56,8.85,8.85,0,0,1,1.72-2.92,4.58,4.58,0,0,1,3.35-1.48c1.84,0,3.35,1,4.51,3a16,16,0,0,1,1.75,8,20.53,20.53,0,0,1-2,9.73c-1.34,2.48-3,3.71-5.15,3.71a3.92,3.92,0,0,1-3-1.19,4.46,4.46,0,0,1-1.13-3.17,3.6,3.6,0,0,1,.57-2.16,1.84,1.84,0,0,1,1.57-.79,1.88,1.88,0,0,1,1.55.69,3,3,0,0,1,.56,1.94,2.42,2.42,0,0,1-.52,1.63,1.64,1.64,0,0,1-1.33.61,2.25,2.25,0,0,1-.58-.07,2.5,2.5,0,0,1-.58-.23,2.18,2.18,0,0,0,.9,1.52,3.1,3.1,0,0,0,1.91.58,2.24,2.24,0,0,0,2.18-1.11c.4-.74.6-2.43.6-5.06,0-.27,0-.72,0-1.37S201,120.06,201,119.67Zm0-.76c.05-1.16.09-2.27.11-3.32s0-2.12,0-3.2a23.41,23.41,0,0,0-.39-5.66,1.42,1.42,0,0,0-1.41-1.1,1.2,1.2,0,0,0-1.2.88,16.14,16.14,0,0,0-.33,4.26V115a11.48,11.48,0,0,0,.37,3.74,1.37,1.37,0,0,0,1.38.85,1.71,1.71,0,0,0,.75-.16A2.29,2.29,0,0,0,201,118.91Z"></path><path class="cls-1" d="M211.2,129v-.64h3.5V107.81a16.12,16.12,0,0,1-1.67.6,14.28,14.28,0,0,1-1.61.37v-.61a17.54,17.54,0,0,0,3.75-1.33,10.05,10.05,0,0,0,2.68-1.91h.83v23.46h3.15V129Z"></path><path class="cls-1" d="M235.1,119.67a3.64,3.64,0,0,1-1,.46,3.72,3.72,0,0,1-1.06.15,4.66,4.66,0,0,1-3.82-2.13,8.59,8.59,0,0,1-1.58-5.3,10.37,10.37,0,0,1,.61-3.56,9,9,0,0,1,1.71-2.92,4.44,4.44,0,0,1,1.51-1.08,4.32,4.32,0,0,1,1.84-.4c1.85,0,3.35,1,4.52,3a16,16,0,0,1,1.75,8,20.52,20.52,0,0,1-2,9.73c-1.33,2.48-3,3.71-5.14,3.71a3.92,3.92,0,0,1-3-1.19A4.42,4.42,0,0,1,228.3,125a3.6,3.6,0,0,1,.58-2.16,1.84,1.84,0,0,1,1.57-.79,1.9,1.9,0,0,1,1.55.69,3,3,0,0,1,.55,1.94,2.47,2.47,0,0,1-.51,1.63,1.66,1.66,0,0,1-1.34.61,2.22,2.22,0,0,1-.57-.07,2.5,2.5,0,0,1-.58-.23,2.14,2.14,0,0,0,.9,1.52,3.09,3.09,0,0,0,1.9.58,2.27,2.27,0,0,0,2.19-1.11c.4-.74.6-2.43.6-5.06,0-.27,0-.72,0-1.37S235.1,120.06,235.1,119.67Zm0-.76c.05-1.16.08-2.27.11-3.32s0-2.12,0-3.2a23.41,23.41,0,0,0-.39-5.66,1.43,1.43,0,0,0-1.41-1.1,1.22,1.22,0,0,0-1.21.88,16.14,16.14,0,0,0-.33,4.26V115a11.38,11.38,0,0,0,.38,3.74,1.37,1.37,0,0,0,1.38.85,1.71,1.71,0,0,0,.75-.16A2.43,2.43,0,0,0,235.1,118.91Z"></path></svg> 