<svg xmlns="http://www.w3.org/2000/svg" version="1.1" xmlns:xlink="http://www.w3.org/1999/xlink" xmlns:svgjs="http://svgjs.dev/svgjs" width="2000" height="712" viewBox="0 0 2000 712"><g transform="matrix(1,0,0,1,-1.2121212121212466,-0.8956163264072643)"><svg viewBox="0 0 396 141" data-background-color="#ffffff" preserveAspectRatio="xMidYMid meet" height="712" width="2000" xmlns="http://www.w3.org/2000/svg" xmlns:xlink="http://www.w3.org/1999/xlink"><g id="tight-bounds" transform="matrix(1,0,0,1,0.2400000000000091,0.17736222194301376)"><svg viewBox="0 0 395.52 140.64527555611397" height="140.64527555611397" width="395.52"><g><svg viewBox="0 0 687.3852756513536 244.43135999999998" height="140.64527555611397" width="395.52"><g transform="matrix(1,0,0,1,291.86527565135367,21.75244855895197)"><svg viewBox="0 0 395.52 200.92646288209605" height="200.92646288209605" width="395.52"><g id="textblocktransform"><svg viewBox="0 0 395.52 200.92646288209605" height="200.92646288209605" width="395.52" id="textblock"><g><svg viewBox="0 0 395.52 200.92646288209605" height="200.92646288209605" width="395.52"><g transform="matrix(1,0,0,1,0,0)"><svg width="395.52" viewBox="3.45 -34.9 68.7 34.9" height="200.92646288209605" data-palette-color="#000000"><path d="M33.6-34.9L41.5-34.9 41.5 0 34.5 0 34.5-22.7 25.15 0 19.85 0 10.45-22.7 10.45 0 3.45 0 3.45-34.9 11.4-34.9 22.5-8.95 33.6-34.9ZM46.55-34.9L72.15-34.9 72.15-29.25 62.85-29.25 62.85 0 55.85 0 55.85-29.25 46.55-29.25 46.55-34.9Z" opacity="1" transform="matrix(1,0,0,1,0,0)" fill="#000000" class="wordmark-text-0" data-fill-palette-color="primary" id="text-0"></path></svg></g></svg></g></svg></g></svg></g><g><svg viewBox="0 0 244.43135999999998 244.43135999999998" height="244.43135999999998" width="244.43135999999998"><g><svg></svg></g><g id="icon-0"><svg viewBox="0 0 244.43135999999998 244.43135999999998" height="244.43135999999998" width="244.43135999999998"><g><path transform="scale(2.44431,2.44431)" d="M30 100c-16.569 0-30-13.431-30-30v-40c0-16.569 13.431-30 30-30h40c16.569 0 30 13.431 30 30v40c0 16.569-13.431 30-30 30z" fill="#000000" fill-rule="nonzero" stroke="none" stroke-width="1" stroke-linecap="butt" stroke-linejoin="miter" stroke-miterlimit="10" stroke-dasharray="" stroke-dashoffset="0" font-family="none" font-weight="none" font-size="none" text-anchor="none" style="mix-blend-mode: normal" data-fill-palette-color="accent"></path></g><g transform="matrix(1,0,0,1,67.7414816024523,48.886272000000005)"><svg viewBox="0 0 108.94839679509538 146.65881599999997" height="146.65881599999997" width="108.94839679509538"><g><svg xmlns="http://www.w3.org/2000/svg" xmlns:xlink="http://www.w3.org/1999/xlink" version="1.1" x="0" y="0" viewBox="13.2769396932495 1.4317256534311147 71.83072878613832 96.69357187517979" enable-background="new 0 0 100 100" xml:space="preserve" height="146.65881599999997" width="108.94839679509538" class="icon-dxe-0" data-fill-palette-color="quaternary" id="dxe-0"><path fill-rule="evenodd" clip-rule="evenodd" d="M40.224 25.408C56.672 26.654 63.694 16.828 70.144 6.43 72.591 2.487 75.024-0.182 79.886 2.542 86.191 6.075 86.802 9.086 81.633 14.197 72.929 22.804 68.817 33.213 68.558 45.29 68.444 50.654 67.354 55.635 63.378 59.566 60.143 62.766 56.233 63.492 52.099 61.957 47.918 60.403 48.405 56.853 48.962 53.352 49.911 47.389 46.838 44.441 41.291 43.559 39.059 43.204 36.79 43.081 34.541 42.826 30.263 42.339 26.08 41.349 26.009 36.008 25.943 31.021 28.319 27.168 33.48 26.007 36.31 25.369 39.308 25.479 40.224 25.408" fill="#ffffff" data-fill-palette-color="quaternary"></path><path fill-rule="evenodd" clip-rule="evenodd" d="M22.043 98.006C19.992 98.006 18.845 97.9 17.724 98.025 12.831 98.574 12.318 96.875 14.528 92.785 20.174 82.334 23.051 71.532 19.609 59.453 18.389 55.171 18.288 49.137 24.57 47.983 33.051 46.423 39.609 50.841 39.887 57.58 40.118 63.17 42.329 66.972 47.522 69.306 52.369 71.486 52.391 74.359 47.715 76.877 40.051 81.008 34.17 86.583 31.238 95.053 29.375 100.438 24.425 96.724 22.043 98.006" fill="#ffffff" data-fill-palette-color="quaternary"></path></svg></g></svg></g></svg></g></svg></g></svg></g><defs></defs></svg><rect width="395.52" height="140.64527555611397" fill="none" stroke="none" visibility="hidden"></rect></g></svg></g></svg>